<svg width="32" height="32" viewBox="0 0 32 32" fill="none" xmlns="http://www.w3.org/2000/svg">
<g clip-path="url(#clip0_148_582)">
<path d="M8 9H4C3.46957 9 2.96086 9.21071 2.58579 9.58579C2.21071 9.96086 2 10.4696 2 11V23H4V18H8V23H10V11C10 10.4696 9.78929 9.96086 9.41421 9.58579C9.03914 9.21071 8.53043 9 8 9ZM4 16V11H8V16H4Z" fill="white"/>
<path d="M22 11H25V21H22V23H30V21H27V11H30V9H22V11Z" fill="white"/>
<path d="M14 23H12V9H18C18.5304 9 19.0391 9.21071 19.4142 9.58579C19.7893 9.96086 20 10.4696 20 11V16C20 16.5304 19.7893 17.0391 19.4142 17.4142C19.0391 17.7893 18.5304 18 18 18H14V23ZM14 16H18V11H14V16Z" fill="white"/>
</g>
<defs>
<clipPath id="clip0_148_582">
<rect width="32" height="32" fill="white"/>
</clipPath>
</defs>
</svg>
