<svg width="20" height="20" viewBox="0 0 20 20" fill="none" xmlns="http://www.w3.org/2000/svg">
<path d="M14.1667 18.3333H4.16675C3.50371 18.3333 2.86782 18.0699 2.39898 17.6011C1.93014 17.1323 1.66675 16.4964 1.66675 15.8333V7.5C1.66675 6.83696 1.93014 6.20108 2.39898 5.73223C2.86782 5.26339 3.50371 5 4.16675 5H5.00008C5.0141 4.29387 5.25204 3.61043 5.67959 3.04828C6.10714 2.48612 6.7022 2.07429 7.37895 1.8722C8.05569 1.6701 8.77913 1.68818 9.44493 1.92383C10.1107 2.15948 10.6845 2.60052 11.0834 3.18334C11.4571 3.71596 11.6605 4.34939 11.6667 5H14.1667C14.3878 5 14.5997 5.0878 14.756 5.24408C14.9123 5.40036 15.0001 5.61232 15.0001 5.83333V8.33333C15.7062 8.34735 16.3897 8.5853 16.9518 9.01285C17.514 9.4404 17.9258 10.0355 18.1279 10.7122C18.33 11.3889 18.3119 12.1124 18.0763 12.7782C17.8406 13.444 17.3996 14.0177 16.8167 14.4167C16.2841 14.7904 15.6507 14.9938 15.0001 15V17.5C15.0001 17.721 14.9123 17.933 14.756 18.0893C14.5997 18.2455 14.3878 18.3333 14.1667 18.3333ZM4.16675 6.66667C3.94573 6.66667 3.73377 6.75447 3.57749 6.91075C3.42121 7.06703 3.33341 7.27899 3.33341 7.5V15.8333C3.33341 16.0543 3.42121 16.2663 3.57749 16.4226C3.73377 16.5789 3.94573 16.6667 4.16675 16.6667H13.3334V14.0167C13.3327 13.8831 13.3641 13.7512 13.425 13.6323C13.4859 13.5134 13.5746 13.4108 13.6834 13.3333C13.7919 13.2559 13.9174 13.2057 14.0494 13.1869C14.1813 13.168 14.3159 13.1811 14.4417 13.225C14.6792 13.3219 14.9379 13.3552 15.1922 13.3216C15.4465 13.2879 15.6876 13.1886 15.8917 13.0333C16.095 12.9094 16.2693 12.7434 16.4029 12.5465C16.5366 12.3495 16.6266 12.1263 16.6667 11.8917C16.6989 11.6551 16.6798 11.4143 16.6108 11.1857C16.5418 10.9571 16.4245 10.746 16.2667 10.5667C16.0535 10.3076 15.763 10.1234 15.4377 10.041C15.1125 9.95852 14.7693 9.98213 14.4584 10.1083C14.3326 10.1522 14.198 10.1653 14.0661 10.1465C13.9341 10.1276 13.8086 10.0774 13.7001 10C13.5912 9.92251 13.5026 9.81997 13.4417 9.70104C13.3808 9.58212 13.3494 9.45029 13.3501 9.31667V6.66667H10.6834C10.5465 6.67443 10.4097 6.64826 10.2853 6.59049C10.1609 6.53271 10.0526 6.44511 9.9702 6.33547C9.88776 6.22583 9.83366 6.09753 9.81271 5.96196C9.79176 5.82639 9.80459 5.68775 9.85008 5.55834C9.94697 5.32084 9.98024 5.06219 9.94663 4.80791C9.91302 4.55362 9.81368 4.3125 9.65842 4.10834C9.53538 3.89931 9.36688 3.72064 9.16541 3.58558C8.96394 3.45052 8.73467 3.36252 8.49457 3.32811C8.25447 3.29369 8.0097 3.31374 7.77841 3.38678C7.54711 3.45981 7.33522 3.58395 7.15842 3.75C6.99423 3.91285 6.86573 4.10808 6.78108 4.32328C6.69643 4.53848 6.6575 4.76894 6.66675 5C6.66868 5.19114 6.70539 5.38034 6.77508 5.55834C6.81914 5.68435 6.83227 5.81911 6.81339 5.95126C6.7945 6.08341 6.74414 6.20909 6.66655 6.31772C6.58896 6.42634 6.4864 6.51474 6.36752 6.57547C6.24864 6.6362 6.11691 6.66747 5.98341 6.66667H4.16675Z" fill="#959595"/>
</svg>
