<svg width="12" height="12" viewBox="0 0 12 12" fill="none" xmlns="http://www.w3.org/2000/svg">
    <g clip-path="url(#clip0_37_311)">
        <path d="M9.9999 8.09V3.91C10.2397 3.82644 10.4544 3.68336 10.6238 3.49416C10.7933 3.30496 10.9119 3.07584 10.9686 2.82828C11.0252 2.58071 11.0181 2.32281 10.9479 2.07874C10.8777 1.83467 10.7466 1.61243 10.5671 1.43285C10.3875 1.25326 10.1652 1.12222 9.92116 1.05199C9.67709 0.981766 9.41919 0.97466 9.17162 1.03134C8.92406 1.08802 8.69494 1.20663 8.50574 1.37606C8.31654 1.54548 8.17346 1.76017 8.0899 2H3.9099C3.82634 1.76017 3.68326 1.54548 3.49406 1.37606C3.30486 1.20663 3.07574 1.08802 2.82818 1.03134C2.58061 0.97466 2.32271 0.981766 2.07864 1.05199C1.83457 1.12222 1.61233 1.25326 1.43275 1.43285C1.25316 1.61243 1.12212 1.83467 1.05189 2.07874C0.981667 2.32281 0.974561 2.58071 1.03124 2.82828C1.08792 3.07584 1.20653 3.30496 1.37596 3.49416C1.54538 3.68336 1.76007 3.82644 1.9999 3.91V8.09C1.76007 8.17356 1.54538 8.31664 1.37596 8.50584C1.20653 8.69504 1.08792 8.92416 1.03124 9.17172C0.974561 9.41929 0.981667 9.67719 1.05189 9.92126C1.12212 10.1653 1.25316 10.3876 1.43275 10.5672C1.61233 10.7467 1.83457 10.8778 2.07864 10.948C2.32271 11.0182 2.58061 11.0253 2.82818 10.9687C3.07574 10.912 3.30486 10.7934 3.49406 10.6239C3.68326 10.4545 3.82634 10.2398 3.9099 10H8.0899C8.17346 10.2398 8.31654 10.4545 8.50574 10.6239C8.69494 10.7934 8.92406 10.912 9.17162 10.9687C9.41919 11.0253 9.67709 11.0182 9.92116 10.948C10.1652 10.8778 10.3875 10.7467 10.5671 10.5672C10.7466 10.3876 10.8777 10.1653 10.9479 9.92126C11.0181 9.67719 11.0252 9.41929 10.9686 9.17172C10.9119 8.92416 10.7933 8.69504 10.6238 8.50584C10.4544 8.31664 10.2397 8.17356 9.9999 8.09ZM9.4999 2C9.59879 2 9.69546 2.02932 9.77769 2.08426C9.85991 2.13921 9.924 2.21729 9.96184 2.30866C9.99968 2.40002 10.0096 2.50055 9.99029 2.59754C9.971 2.69454 9.92338 2.78363 9.85345 2.85355C9.78353 2.92348 9.69444 2.9711 9.59745 2.99039C9.50045 3.00968 9.39992 2.99978 9.30856 2.96194C9.2172 2.9241 9.13911 2.86001 9.08416 2.77778C9.02922 2.69556 8.9999 2.59889 8.9999 2.5C8.9999 2.36739 9.05258 2.24021 9.14635 2.14645C9.24011 2.05268 9.36729 2 9.4999 2ZM2.4999 2C2.59879 2 2.69546 2.02932 2.77769 2.08426C2.85991 2.13921 2.924 2.21729 2.96184 2.30866C2.99968 2.40002 3.00959 2.50055 2.99029 2.59754C2.971 2.69454 2.92338 2.78363 2.85345 2.85355C2.78353 2.92348 2.69444 2.9711 2.59745 2.99039C2.50046 3.00968 2.39992 2.99978 2.30856 2.96194C2.2172 2.9241 2.13911 2.86001 2.08417 2.77778C2.02922 2.69556 1.9999 2.59889 1.9999 2.5C1.9999 2.36739 2.05258 2.24021 2.14635 2.14645C2.24012 2.05268 2.36729 2 2.4999 2ZM2.4999 10C2.40101 10 2.30434 9.97068 2.22212 9.91573C2.13989 9.86079 2.0758 9.7827 2.03796 9.69134C2.00012 9.59998 1.99022 9.49944 2.00951 9.40245C2.0288 9.30546 2.07642 9.21637 2.14635 9.14645C2.21627 9.07652 2.30536 9.0289 2.40236 9.00961C2.49935 8.99031 2.59988 9.00022 2.69124 9.03806C2.78261 9.0759 2.86069 9.13999 2.91564 9.22221C2.97058 9.30444 2.9999 9.40111 2.9999 9.5C2.9999 9.63261 2.94722 9.75978 2.85345 9.85355C2.75969 9.94732 2.63251 10 2.4999 10ZM8.0899 9H3.9099C3.83524 8.7903 3.71485 8.59985 3.55745 8.44245C3.40005 8.28505 3.2096 8.16466 2.9999 8.09V3.91C3.2096 3.83534 3.40005 3.71495 3.55745 3.55755C3.71485 3.40015 3.83524 3.2097 3.9099 3H8.0899C8.16456 3.2097 8.28495 3.40015 8.44235 3.55755C8.59975 3.71495 8.7902 3.83534 8.9999 3.91V8.09C8.7902 8.16466 8.59975 8.28505 8.44235 8.44245C8.28495 8.59985 8.16456 8.7903 8.0899 9ZM9.4999 10C9.40101 10 9.30434 9.97068 9.22211 9.91573C9.13989 9.86079 9.0758 9.7827 9.03796 9.69134C9.00012 9.59998 8.99021 9.49944 9.00951 9.40245C9.0288 9.30546 9.07642 9.21637 9.14635 9.14645C9.21627 9.07652 9.30536 9.0289 9.40235 9.00961C9.49934 8.99031 9.59988 9.00022 9.69124 9.03806C9.7826 9.0759 9.86069 9.13999 9.91564 9.22221C9.97058 9.30444 9.9999 9.40111 9.9999 9.5C9.9999 9.63261 9.94722 9.75978 9.85345 9.85355C9.75969 9.94732 9.63251 10 9.4999 10Z" fill="#959595" />
    </g>
    <defs>
        <clipPath id="clip0_37_311">
            <rect width="12" height="12" fill="white" />
        </clipPath>
    </defs>
</svg>