<svg width="26" height="32" viewBox="0 0 26 32" fill="none" xmlns="http://www.w3.org/2000/svg">
<mask id="path-1-inside-1_117_632" fill="white">
<path d="M19.3201 23.5261C18.7436 23.2225 17.3239 22.4181 16.712 21.8409V20.2723C18.6757 19.1499 20.0175 17.1373 20.4448 14.6747C21.5556 14.356 22.5222 13.3135 22.5222 12.3544C22.5222 11.3833 21.7921 10.7388 20.5854 10.6053V3.61084L20.5821 3.58256C20.5661 3.44654 20.1079 0.25 13 0.25C5.89208 0.25 5.43392 3.44654 5.41791 3.58262L5.41456 3.61084V10.6053C4.20786 10.7388 3.47785 11.3833 3.47785 12.3544C3.47785 13.3135 4.4444 14.356 5.55516 14.6746C5.98246 17.1372 7.32435 19.1498 9.28798 20.2722V21.8409C8.67578 22.4185 7.25469 23.2234 6.67884 23.5267C0.385634 25.5684 0.252647 29.296 0.250065 29.4541L0.25 31.5601H25.75V29.4594C25.7491 29.3004 25.6561 25.5492 19.3201 23.5261ZM20.5854 11.5786C21.4484 11.6996 21.5538 12.1458 21.5538 12.3544C21.5538 12.7502 21.1253 13.2892 20.567 13.5862C20.5789 13.3871 20.5854 11.5786 20.5854 11.5786ZM4.4462 12.3544C4.4462 12.1458 4.55162 11.6996 5.41456 11.5786C5.41456 11.5786 5.42114 13.3871 5.43302 13.5862C4.87467 13.2892 4.4462 12.7502 4.4462 12.3544ZM6.38298 3.68243C6.40906 3.56648 6.56354 3.04202 7.30052 2.50188C8.09948 1.91634 9.73684 1.21835 13 1.21835C16.2632 1.21835 17.9005 1.91634 18.6995 2.50188C19.4365 3.04202 19.5909 3.56648 19.6171 3.68243V8.28444C19.2019 8.21975 18.884 8.06565 18.6695 7.82324C18.2385 7.33648 18.3211 6.61319 18.3216 6.60873L18.3953 6.06013H7.60472L7.67838 6.60873C7.67934 6.61583 7.76159 7.33054 7.33532 7.81788C7.1206 8.06333 6.80118 8.2193 6.38298 8.28444V3.68243ZM6.38291 9.26183C7.10214 9.18055 7.6663 8.91032 8.0641 8.45545C8.47165 7.9896 8.60361 7.43241 8.6404 7.02848H17.3597C17.3964 7.43241 17.5284 7.98954 17.936 8.45545C18.3338 8.91032 18.8979 9.18055 19.6172 9.26183V10.9019H18.6488V9.93354H13.807V11.1368C13.548 11.0053 13.2611 10.9019 13 10.9019C12.7389 10.9019 12.452 11.0054 12.193 11.1368V9.93354H7.35127V10.9019H6.38291V9.26183ZM17.6804 10.9019V12.0316C17.6804 12.4766 17.3184 12.8386 16.8734 12.8386H15.5823C15.1373 12.8386 14.7753 12.4766 14.7753 12.0316V10.9019H17.6804ZM11.2247 10.9019V12.0316C11.2247 12.4766 10.8627 12.8386 10.4177 12.8386H9.12658C8.68159 12.8386 8.31962 12.4766 8.31962 12.0316V10.9019H11.2247ZM6.46684 14.2445L6.46309 14.2117C6.40912 13.78 6.38291 13.3837 6.38291 13V11.8703H7.35127V12.0316C7.35127 13.0106 8.1477 13.807 9.12658 13.807H10.4177C11.3108 13.807 12.0517 13.1439 12.1748 12.2843C12.4708 12.0701 12.8362 11.8703 13 11.8703C13.1626 11.8703 13.5284 12.0704 13.8253 12.2847C13.9485 13.1442 14.6893 13.807 15.5823 13.807H16.8734C17.8523 13.807 18.6487 13.0106 18.6487 12.0316V11.8703H19.6171V13C19.6171 13.3837 19.5909 13.78 19.5369 14.2117L19.5345 14.2349C19.1971 16.6309 17.9118 18.5691 16.0054 19.555L15.939 19.5894L15.9347 19.5937C15.0473 20.0376 14.0602 20.2627 13 20.2627C11.9407 20.2627 10.9544 20.038 10.0654 19.5937L9.99455 19.555C8.09077 18.5705 6.80634 16.636 6.46684 14.2445ZM10.1332 22.3606L10.2563 22.2227V20.7348C11.1096 21.0639 12.0293 21.231 13 21.231C13.9711 21.231 14.8912 21.0638 15.7437 20.7349V22.2227L15.8668 22.3606C16.4257 22.9862 17.739 23.761 18.4511 24.1564C18.2682 24.4053 17.972 24.7448 17.5302 25.0817C16.4026 25.9412 14.8361 26.3956 13 26.3956C11.1639 26.3956 9.5974 25.9412 8.46984 25.0816C8.02782 24.7447 7.73157 24.405 7.54888 24.1564C8.26087 23.7611 9.57422 22.9862 10.1332 22.3606ZM24.7816 30.5918H1.21835V29.4709C1.22145 29.4141 1.27671 28.6358 1.96605 27.6624C3.0907 26.0741 5.06382 25.1106 6.64708 24.5592C7.2104 25.4111 8.94408 27.3639 13 27.3639C17.0586 27.3639 18.7919 25.4086 19.354 24.5576C20.9468 25.1037 22.9298 26.0624 24.0478 27.6535C24.7397 28.6382 24.7801 29.4261 24.7816 29.4673V30.5918Z"/>
</mask>
<path d="M19.3201 23.5261C18.7436 23.2225 17.3239 22.4181 16.712 21.8409V20.2723C18.6757 19.1499 20.0175 17.1373 20.4448 14.6747C21.5556 14.356 22.5222 13.3135 22.5222 12.3544C22.5222 11.3833 21.7921 10.7388 20.5854 10.6053V3.61084L20.5821 3.58256C20.5661 3.44654 20.1079 0.25 13 0.25C5.89208 0.25 5.43392 3.44654 5.41791 3.58262L5.41456 3.61084V10.6053C4.20786 10.7388 3.47785 11.3833 3.47785 12.3544C3.47785 13.3135 4.4444 14.356 5.55516 14.6746C5.98246 17.1372 7.32435 19.1498 9.28798 20.2722V21.8409C8.67578 22.4185 7.25469 23.2234 6.67884 23.5267C0.385634 25.5684 0.252647 29.296 0.250065 29.4541L0.25 31.5601H25.75V29.4594C25.7491 29.3004 25.6561 25.5492 19.3201 23.5261ZM20.5854 11.5786C21.4484 11.6996 21.5538 12.1458 21.5538 12.3544C21.5538 12.7502 21.1253 13.2892 20.567 13.5862C20.5789 13.3871 20.5854 11.5786 20.5854 11.5786ZM4.4462 12.3544C4.4462 12.1458 4.55162 11.6996 5.41456 11.5786C5.41456 11.5786 5.42114 13.3871 5.43302 13.5862C4.87467 13.2892 4.4462 12.7502 4.4462 12.3544ZM6.38298 3.68243C6.40906 3.56648 6.56354 3.04202 7.30052 2.50188C8.09948 1.91634 9.73684 1.21835 13 1.21835C16.2632 1.21835 17.9005 1.91634 18.6995 2.50188C19.4365 3.04202 19.5909 3.56648 19.6171 3.68243V8.28444C19.2019 8.21975 18.884 8.06565 18.6695 7.82324C18.2385 7.33648 18.3211 6.61319 18.3216 6.60873L18.3953 6.06013H7.60472L7.67838 6.60873C7.67934 6.61583 7.76159 7.33054 7.33532 7.81788C7.1206 8.06333 6.80118 8.2193 6.38298 8.28444V3.68243ZM6.38291 9.26183C7.10214 9.18055 7.6663 8.91032 8.0641 8.45545C8.47165 7.9896 8.60361 7.43241 8.6404 7.02848H17.3597C17.3964 7.43241 17.5284 7.98954 17.936 8.45545C18.3338 8.91032 18.8979 9.18055 19.6172 9.26183V10.9019H18.6488V9.93354H13.807V11.1368C13.548 11.0053 13.2611 10.9019 13 10.9019C12.7389 10.9019 12.452 11.0054 12.193 11.1368V9.93354H7.35127V10.9019H6.38291V9.26183ZM17.6804 10.9019V12.0316C17.6804 12.4766 17.3184 12.8386 16.8734 12.8386H15.5823C15.1373 12.8386 14.7753 12.4766 14.7753 12.0316V10.9019H17.6804ZM11.2247 10.9019V12.0316C11.2247 12.4766 10.8627 12.8386 10.4177 12.8386H9.12658C8.68159 12.8386 8.31962 12.4766 8.31962 12.0316V10.9019H11.2247ZM6.46684 14.2445L6.46309 14.2117C6.40912 13.78 6.38291 13.3837 6.38291 13V11.8703H7.35127V12.0316C7.35127 13.0106 8.1477 13.807 9.12658 13.807H10.4177C11.3108 13.807 12.0517 13.1439 12.1748 12.2843C12.4708 12.0701 12.8362 11.8703 13 11.8703C13.1626 11.8703 13.5284 12.0704 13.8253 12.2847C13.9485 13.1442 14.6893 13.807 15.5823 13.807H16.8734C17.8523 13.807 18.6487 13.0106 18.6487 12.0316V11.8703H19.6171V13C19.6171 13.3837 19.5909 13.78 19.5369 14.2117L19.5345 14.2349C19.1971 16.6309 17.9118 18.5691 16.0054 19.555L15.939 19.5894L15.9347 19.5937C15.0473 20.0376 14.0602 20.2627 13 20.2627C11.9407 20.2627 10.9544 20.038 10.0654 19.5937L9.99455 19.555C8.09077 18.5705 6.80634 16.636 6.46684 14.2445ZM10.1332 22.3606L10.2563 22.2227V20.7348C11.1096 21.0639 12.0293 21.231 13 21.231C13.9711 21.231 14.8912 21.0638 15.7437 20.7349V22.2227L15.8668 22.3606C16.4257 22.9862 17.739 23.761 18.4511 24.1564C18.2682 24.4053 17.972 24.7448 17.5302 25.0817C16.4026 25.9412 14.8361 26.3956 13 26.3956C11.1639 26.3956 9.5974 25.9412 8.46984 25.0816C8.02782 24.7447 7.73157 24.405 7.54888 24.1564C8.26087 23.7611 9.57422 22.9862 10.1332 22.3606ZM24.7816 30.5918H1.21835V29.4709C1.22145 29.4141 1.27671 28.6358 1.96605 27.6624C3.0907 26.0741 5.06382 25.1106 6.64708 24.5592C7.2104 25.4111 8.94408 27.3639 13 27.3639C17.0586 27.3639 18.7919 25.4086 19.354 24.5576C20.9468 25.1037 22.9298 26.0624 24.0478 27.6535C24.7397 28.6382 24.7801 29.4261 24.7816 29.4673V30.5918Z" fill="white" stroke="white" stroke-width="2" mask="url(#path-1-inside-1_117_632)"/>
<mask id="path-2-inside-2_117_632" fill="white">
<path d="M13 15.4209H14.2912V14.4526H13.4842V13.3228H12.5159V14.9367C12.5159 15.2041 12.7326 15.4209 13 15.4209Z"/>
</mask>
<path d="M13 15.4209H14.2912V14.4526H13.4842V13.3228H12.5159V14.9367C12.5159 15.2041 12.7326 15.4209 13 15.4209Z" fill="white"/>
<path d="M14.2912 15.4209V16.4209H15.2912V15.4209H14.2912ZM14.2912 14.4526H15.2912V13.4526H14.2912V14.4526ZM13.4842 14.4526H12.4842V15.4526H13.4842V14.4526ZM13.4842 13.3228H14.4842V12.3228H13.4842V13.3228ZM12.5159 13.3228V12.3228H11.5159V13.3228H12.5159ZM13 16.4209H14.2912V14.4209H13V16.4209ZM15.2912 15.4209V14.4526H13.2912V15.4209H15.2912ZM14.2912 13.4526H13.4842V15.4526H14.2912V13.4526ZM14.4842 14.4526V13.3228H12.4842V14.4526H14.4842ZM13.4842 12.3228H12.5159V14.3228H13.4842V12.3228ZM11.5159 13.3228V14.9367H13.5159V13.3228H11.5159ZM11.5159 14.9367C11.5159 15.7563 12.1802 16.4209 13 16.4209V14.4209C13.285 14.4209 13.5159 14.6519 13.5159 14.9367H11.5159Z" fill="white" mask="url(#path-2-inside-2_117_632)"/>
</svg>
